<svg xmlns="http://www.w3.org/2000/svg" xmlns:xlink="http://www.w3.org/1999/xlink" width="100%" height="100%" viewBox="0 0 80 80">
 <defs>
  <linearGradient id="gradient" gradientUnits="userSpaceOnUse" x1="64" y1="40.56" x2="17.12" y2="40.56">
   <stop offset="0" style="stop-opacity:1; stop-color:#393185"/>
   <stop offset="1" style="stop-opacity:1; stop-color:#9286BE"/>
  </linearGradient>
 </defs>
 <g>
  <path fill="url(#gradient)" d="M64 16l-16 0c0,13.33 0,26.67 0,40l-16 0 0 -8 -16 0 0 8 8 0 0 8c10.67,0 21.33,0 32,0l0 -8 8 0c0,-13.33 0,-26.67 0,-40zm-48 28l16 0c0,-6.67 0,-13.33 0,-20l0 -8 -8 0 0 8 -8 0c0,6.67 0,13.33 0,20zm6 -30l-8 0 0 8 8 0 0 -8z"/>
  <rect fill="none" width="80" height="80"/>
 </g>
</svg>
